<svg xmlns="http://www.w3.org/2000/svg" xmlns:xlink="http://www.w3.org/1999/xlink" viewBox="40 40 140 140" aria-hidden="true" width="220" height="220"><style>.st1{fill-rule:evenodd;clip-rule:evenodd;fill:#fff}</style><defs><path id="path-1" fill="#fff" d="M114.9 10.3c2.1 0 3.5 1.2 3.6 2.7 0 1.1 -0.9 2 -2 2 -2.4 0 -1.8 -1.8 -2.8 -1.8 -2.24 0 -3.999 3.444 -5.675 7.129l-0.258 0.568 -0.384 0.855 -0.383 0.848c-0.9 1.8 -1.3 2.1 -2 2.1 -1.7 0 -2 -4.5 -2.7 -6.5 -1.4 3 -4.2 6.5 -8.6 6.5 -2.6 -0.1 -5.1 -1.4 -5.1 -5.4 0 -4.5 3 -7.7 6 -7.7 2.3 0 3.8 2.4 3.8 4 -0.1 4.4 -6 4.5 -6 5.4s1.5 1.2 2.4 1.2c3.8 0 6.3 -4.9 7.2 -8.3 0.2 -0.6 0.7 -1.8 1.8 -1.8 1.2 0 0.6 7.4 2.3 7.4 1.1 0 2.5 -9.2 8.8 -9.2M55.7 0.2c2 -0.1 3.6 1.8 3.8 4.8 0.4 8 -2.3 11.2 -3.7 14.1 0.3 1.1 2.2 3 4 3 0.7 0 1.5 -0.3 1.7 -0.6 -0.2 -0.5 -0.3 -1 -0.3 -1.9 0 -4.6 3.1 -8.4 5.7 -8.4 2.1 0 3.3 2.7 3.3 4.5 0 2.1 -1.8 3.8 -4.5 5.4 0.5 0.5 1.4 0.8 2.1 0.8 3.8 0.1 5.9 -4.5 7.4 -8.6 0.3 -0.8 0.8 -1.9 1.7 -1.9 1.6 0 2.2 10.4 4.9 10.4 1.1 0 2.1 -2.3 2.1 -4.1 0.1 -1.4 -0.4 -1.5 -0.4 -3.4 0 -2.1 1.1 -3.9 2.7 -3.9 1 0 1.3 0.9 1.3 2 -0.1 4.2 -3.2 12 -7.8 12 -3.4 0 -3.1 -5.8 -4.3 -5.8 -1.3 0 -3.2 5.8 -9.9 5.8 -1.1 0 -2.3 -0.5 -3.2 -1.6 -1.6 1.1 -3 1.5 -4.5 1.5 -2.5 0 -3.6 -2.5 -4.6 -2.5 -1.2 0 -2.6 2.5 -6.6 2.5 -3.2 0 -3.8 -4.2 -4.9 -4.2 -1 0 -2.6 4.2 -4.3 4.2 -1.366 0 -2.208 -1.737 -3.004 -3.516l-0.237 -0.534c-0.752 -1.682 -1.501 -3.251 -2.661 -3.251 -0.909 0 -2.8 1.693 -4.714 3.437l-0.522 0.476c-1.909 1.74 -3.752 3.383 -4.564 3.287q-1.05 -0.15 -0.9 -1.2c0.1 -0.9 1 -3.4 1.3 -4.5 0.6 -2 1.1 -4.2 1.4 -4.9 0.2 -0.7 1 -1.2 1.6 -1.1 0.3 0 0.4 0.5 0.5 1 0.3 1.6 0.8 3.3 1.3 3.3 0.9 0 4.1 -5.8 5.9 -5.8 2.3 0 2.5 9.2 5.5 9.2 1 0 1.7 -1.2 2.4 -2.6 0.1 -2.4 0.8 -5.9 2.8 -5.9 1.4 0 2 3.1 1 5.8 -0.1 3.2 2.1 4 3.5 4 1 0 2.7 -0.3 4.1 -2.4 -0.8 -1.7 -1.3 -5.2 -1.4 -6.4C50.401 6.301 52.901 0.302 55.701 0.201m-38.5 2c1.2 -0.4 1.7 0.2 2.2 1.6 0.6 2.1 0.6 4.9 0.4 8.8 -0.3 5.4 -3.1 11.9 -10 11.7 -6 -0.1 -8.6 -3.9 -8.8 -9.6 -0.1 -2.7 0.1 -5.4 1.3 -9.2 0.7 -2 1.2 -2.7 3.1 -3.1 1.5 -0.3 1.3 1.2 1 3 -0.8 3.9 -1.1 5.8 -0.9 10.3 0.3 4.7 2.5 6.6 4.9 6.6 3.7 0.1 5.3 -2.8 6 -7.1 0.5 -3.4 0.1 -5 -0.2 -6.1 -0.2 -0.6 -0.8 -1.9 -0.9 -2.9 -0.4 -2.2 0.8 -3.7 1.9 -4m48.7 12.1c-0.6 -0.1 -2 0.6 -2 2.7 0 1.7 0.6 2.5 0.9 2.8 2 -0.6 2.5 -2.2 2.4 -3.5 0 -1.1 -0.6 -2 -1.3 -2m27.8 -0.1c-2.6 0 -2.4 4.1 -2 5 1.9 -0.3 3.2 -1.4 3.5 -2.4s-0.1 -2.6 -1.5 -2.6M55.922 4.093l-0.122 0.007c-1.3 0.1 -1.9 4.2 -1.7 8.5 0.2 2.8 0.6 3.2 1 3.2 0.7 0 2.5 -5.1 2.3 -9.1 -0.1 -1.8 -0.6 -2.7 -1.6 -2.6ZM44.3 1c1.2 0 2 0.7 2.1 1.8 0.2 1.5 -0.9 3.1 -2.4 3.1 -1.3 0 -1.9 -0.9 -2.1 -2C41.8 2.3 43 1 44.3 1"/></defs><g id="logo-sketch" fill="none" fill-rule="evenodd" stroke="none" stroke-width="1"><g id="text" transform="translate(49 150)"><use xlink:href="#path-1" id="Mask"/></g><path id="fish" d="M118.7 129.2c-0.4 -0.7 -0.1 -1.9 -1.2 -1.9 -0.7 0 -0.8 0.6 -0.9 1.1 -1.5 -0.5 -2.8 -0.7 -4 -0.7 -0.8 0 -1.5 0.1 -2.2 0.3 -0.4 -0.7 -2.2 -2.1 -3.7 -2.6 -0.6 3.3 -3.5 5.8 -7.8 6.2 -0.2 2.1 -1.9 2.7 -3.2 2.7 -0.9 0 -2.4 -0.3 -2.5 -0.7 -0.5 -3.1 -2.8 -4.8 -3.9 -5.2 0 0.3 0.1 0.7 0.1 1 0 2.6 -1.8 4.2 -5.1 4.2 -0.5 0 -1.2 0 -1.7 -0.1 3.8 4.2 6.5 2.7 8.2 3.5 2.3 1 4.2 4.3 11.6 4.3 2.7 0 5.4 -1.1 7.2 -2.2 0.3 1.1 1.4 2.1 3.3 2.1 3.1 0 4.9 -1 4.9 -1.8 0 -0.2 0 -0.5 -0.6 -0.5 -0.5 0 -0.5 0.1 -2.2 0.1 -2 0 -5.2 -0.8 -6.7 -4.3 -0.3 -0.6 -0.7 -0.6 -0.8 -0.6 -1 0 -2.6 3.6 -8.9 3.6 -2.7 0 -3.9 -1 -3.9 -1.2 0 0 0 -0.1 0.1 -0.1 0.3 0 1.2 0.1 2.4 0.1 4 0 7.2 -1.9 9.2 -4 0.7 -0.8 1 -0.9 1.6 -0.9 0.5 0 1 0.4 1.3 1.1 0.9 2.3 3 4.2 5.2 4.2 3 0 3.1 -5.2 3.8 -5.5 0.1 0 0.3 0.1 0.4 0.1 0.4 0 0.9 -0.3 0.9 -0.9 0.1 -0.8 -0.8 -1 -0.9 -1.4m-5 3.9c-0.8 0 -1.4 -0.6 -1.4 -1.4s0.6 -1.5 1.4 -1.5 1.4 0.7 1.4 1.4c0.1 0.9 -0.6 1.5 -1.4 1.5" class="st1"/><path id="chilli_pepper" d="M103.3 119.2c0.7 0 1 0.6 1.1 1.2 0.2 -0.2 0.5 -0.3 0.8 -0.3 0.7 0 1.1 0.5 1.1 1.1 0 0.4 -0.2 0.7 -0.5 0.9 0.4 0.2 0.7 0.5 0.7 0.9 0 0.5 -0.4 0.9 -1 0.9 -0.5 0 -0.9 -0.6 -1.4 -0.6 -0.3 0 -0.7 0.1 -0.8 0.3 0.2 0.5 0.3 0.9 0.3 1.4 0 2.6 -3.5 4.7 -7.2 4.7 -3.6 0 -5 -2.1 -5 -3 0 -0.2 0.1 -0.3 0.4 -0.3 0.6 0 0.7 0.2 2.4 0.2 3.9 0 2.5 -5 6.2 -5 0.5 0 1.6 0.3 2 1 0.3 -0.3 0.4 -0.7 0.4 -1 0 -0.6 -0.4 -1 -0.4 -1.5s0.4 -0.8 0.9 -0.9" class="st1"/><path id="swirl" d="M80.1 116.6c4.4 0 7.8 3.7 7.8 9 0 2.4 -1.3 5.9 -6.6 5.9 -6.3 0 -10.1 -5.3 -10.1 -8.7 0 -2.9 1.9 -4.7 3.1 -5 -1.299 5.2 1.601 10.201 7.4 10.201 2.9 0 4.3 -1.4 4.3 -3.9 0 -2.8 -1.9 -5.5 -5.2 -5.5 -1.6 0 -2.8 0.9 -2.8 2.2 0 2.1 1.8 3.4 3.7 3.4 1.2 0 2 -0.5 2 -1.3 0 -0.1 0 -0.3 -0.1 -0.4 -0.1 0.1 -0.4 0.1 -0.8 0.1 -1.5 0 -2.7 -0.8 -2.7 -1.7 0 -0.7 0.5 -1.1 1.1 -1.1 2.2 0 3.7 2.2 3.7 3.8s-1.2 3 -3.2 3c-4.3 0 -6.2 -3.5 -6.2 -5.8 0.1 -2.5 2.2 -4.2 4.6 -4.2" class="st1"/><g id="packaging" class="st1"><path d="M132.8 128.4c-0.9 0.7 -3.1 2.3 -6.8 2.3 -2 0 -2.8 -0.6 -3.1 -0.6 -0.4 0 -0.8 0.4 -1.2 0.8 -0.9 1 -2 2.8 -2 4.9 0 1.4 1.1 2.8 3.2 2.8 6.8 0 11.8 -4.2 11.8 -7.5 0.1 -1.9 -1.1 -2.7 -1.9 -2.7m-3.5 6.5 -3.9 1.1c0.3 -0.8 0.5 -1.7 0.5 -2.6 0 -0.3 0 -0.5 -0.1 -0.8h0.5c2.9 0 4.1 -1.1 4.3 -1.1s0.4 0.1 0.4 0.7c0 0.8 -0.4 1.9 -1.7 2.7"/><path d="M127 129.2c1.6 0 3 -0.4 3.9 -1.2 0.3 -0.2 0.4 -0.6 0.4 -1v-0.8c0 -1 -1.6 -1.6 -3.8 -1.6 -2.6 0 -4 1.2 -4 1.7v1.6c0 0.6 1.5 1.3 3.5 1.3"/></g><path id="clothes" d="M139.2 112.2c-5.3 0 -3.9 4.5 -10.1 5.9 -1.1 0.2 -1.5 0.6 -1.5 1.1 0 0.9 0.5 2.1 1.2 2.1 2.7 0 6.8 -5.5 7.6 -5.5 0.3 0 0.6 0 0.6 0.8 0 2 -5.8 4.6 -5.8 6 0 0.8 2 2.6 4.1 2.6 2.9 0 5.5 -5.8 6.1 -5.8 0.5 0 0.6 0.3 0.6 0.7 0 1.6 -2 4.7 -5.4 6 -0.7 0.3 -0.8 0.6 -0.8 0.8 0 0.8 0.9 1.9 1.7 1.9 1 0 7.7 -5.8 7.7 -10.4 0.2 -4.3 -3.1 -6.2 -6 -6.2m2.4 5c-0.4 0 -0.8 -0.1 -1 -0.3 -0.5 -0.2 -1.3 -0.9 -1.3 -1.9s0.5 -1.3 1 -1.3c1.5 0 3.2 1.3 3.2 2.4 0 0.9 -0.8 1.1 -1.9 1.1" class="st1"/><path id="spoon" d="M91.6 119.6h-0.9c-0.3 0 -0.8 -0.1 -1.1 -0.3 -0.6 -0.5 -0.8 -3.2 -1.8 -4.8 -1.2 -1.8 -2.5 -2.3 -4.2 -2.3 -1.2 0 -2.6 0.7 -2.6 1.7 0 0.6 0.3 1 2.6 1.6 2.9 0.7 4.3 2.3 4.6 4.1s0.6 3.2 1.3 3.9c0.9 1 2.6 1.9 4.2 1.9 1.3 0 2.3 -0.4 2.3 -1.6 -0.1 -1.3 -1.9 -4.2 -4.4 -4.2m1.9 3.9c-1.1 0 -2.7 -1.1 -2.7 -1.8 0 -0.5 0.5 -0.8 0.9 -0.8 0.9 0 2.5 1.1 2.5 2 0 0.3 -0.2 0.6 -0.7 0.6" class="st1"/><g id="wave" class="st1"><path d="M113.4 115.9c-0.7 0 -0.7 1.1 -0.7 1.5s0 0.5 -0.3 0.5 -0.5 -0.1 -0.8 -0.1c-0.2 0 -0.4 0.2 -0.4 0.5 0 1.5 1.9 2.7 3.8 2.7 2.5 0 3.7 -1.1 4.4 -1.1 0.3 0 0.4 0.3 0.4 0.5 0 0.4 -0.4 0.9 -0.4 1.1 0 0.6 1.2 0.1 1.2 0.8 0 0.9 -1.5 1.6 -3.8 1.6 -4.5 0 -7.4 -3.1 -7.4 -6 0 -5.4 5.8 -3.7 5.8 -5.8 0 -0.7 -0.7 -1.1 -1.2 -1.1 0.6 -0.8 1.4 -0.9 2.2 -0.9 0.6 0 1.2 0.1 1.7 0.1 0.7 0 1.4 -0.3 1.4 -1.1 0 -0.5 -0.4 -1.1 -2.1 -1.3 0.2 -1.1 2.5 -0.5 2.5 -1.5 0 -0.7 -1.3 -1.2 -2.9 -1.2 -6.2 0 -10.6 5.1 -10.6 10.6 0 5 3.6 10.5 10.3 10.5 6.5 0 9.6 -5.3 9.6 -9.3 -1.2 1.1 -4.4 1.4 -6 1.4 -4.7 0.1 -6 -2.4 -6.7 -2.4"/><path d="M118.5 116.6a1.687 1.687 0 0 0 1.7 -1.7c0 -1.4 -1.4 -2.7 -3.5 -2.7 0.4 0.4 0.5 0.7 0.5 1.1 0 0.5 -0.3 1.1 -0.3 1.7 0 0.9 0.6 1.6 1.6 1.6m10.1 -6.8c0.3 0.4 0.4 0.8 0.4 1.2 0 1 -0.7 2 -0.7 3 0 1.2 0.9 2.2 2.3 2.2 1.5 0 2.5 -1.2 2.5 -2.6 -0.1 -2 -1.8 -3.6 -4.5 -3.8m-7.2 -3.8c0.5 0.6 0.7 1.2 0.7 1.9 0 1.6 -1.2 3.2 -1.2 4.7 0 2 1.3 3.3 3.2 3.3 2 0 3.2 -1.7 3.2 -3.6 0 -2.7 -2.1 -5.6 -5.9 -6.3m2.8 5.7a0.897 0.897 0 0 1 -0.9 -0.9c0 -0.3 0.2 -0.7 0.2 -1.1 0.1 -0.5 0 -0.9 0.3 -0.9 0.6 0 1.3 1.1 1.3 1.8 0 0.6 -0.3 1.1 -0.9 1.1"/></g><g id="bowl" class="st1"><path d="M101.1 107.4c-1.6 -0.6 -2.3 -1.5 -2.7 -3.4 -0.8 1.1 -1.2 2.1 -1.2 2.7 0 2.4 3.3 2.4 3.3 4 0 0.9 -1.7 1.9 -3.9 1.9 -2.5 0 -4.3 -0.4 -5.9 -2 -0.4 -0.4 -0.6 -0.8 -1.1 -0.8 -0.6 0 -0.9 1 -0.9 2 0 3.4 3.3 7.5 7.9 7.5 5.7 0 8 -3.9 8 -7.1 0.1 -1.9 -0.3 -3.6 -3.5 -4.8m-1.6 9.6c-0.5 0 -0.6 -0.2 -0.6 -0.7 0 -0.3 0.1 -0.9 0.1 -1.4 0 -1.2 0.5 -1.1 1.7 -1.7 0.9 -0.4 1.2 -0.9 1.5 -0.9s0.6 0.2 0.6 0.7c0 1.8 -2 4 -3.3 4"/><path d="M93.8 101.6c-0.6 0 -1.6 -0.6 -2.6 -1.4 -1.1 1.1 -1.9 2.6 -1.9 4.3 0 3.5 3.7 6.4 7.3 6.4 0.6 0 1.2 -0.1 1.8 -0.2 -2 -0.2 -3.2 -1.7 -3.2 -3.5 0 -2.3 2.6 -4.4 2.6 -6.2 0 -2.2 -2.7 -2.4 -2.7 -4.2 0 -1.5 2.6 -2.6 2.5 -5 0 -1.4 -1.4 -3.1 -3.3 -4.1 0.3 0.6 0.5 1.4 0.5 1.9 0 2.8 -5.4 4 -5.4 6.2 0 2.8 5.2 3.9 5.2 5.2 0 0.3 -0.2 0.6 -0.8 0.6"/></g><path id="heart" d="M148.3 103.4c1.8 0 3.2 2.3 3.2 5 0 2.9 -1.4 6 -3.8 8.2 0 -4.8 -5.9 -3.3 -5.9 -6.8 0 -1.5 1.1 -2.5 2.4 -2.5 1.1 0 2 0.3 2.7 1 -0.6 -0.6 -1 -1.5 -1 -2.3 0 -1.3 0.8 -2.6 2.4 -2.6" class="st1"/><path id="flower" d="M77.5 108.3c-0.5 0.1 -0.9 0.2 -1.2 0.5 -0.3 -1.1 -1.3 -2.1 -2.7 -1.8 -1.2 0.2 -2.1 1.3 -1.9 2.7 0 0.2 0.1 0.5 0.2 0.7 0 0 -0.2 0 -0.4 0.1 -1 0.2 -2.2 1.2 -2 2.7 0.2 1.3 1.3 2.2 2.6 2.1 0.5 -0.1 0.9 -0.2 1.2 -0.4 0.3 1.2 1.3 1.9 2.6 1.8 1.3 -0.2 2.2 -1.3 2.1 -2.6 0 -0.4 -0.1 -0.6 -0.2 -0.8h0.3c1.3 -0.3 2.2 -1.3 2.1 -2.6 -0.4 -1.6 -1.5 -2.6 -2.7 -2.4m-2.6 4.9c-0.8 0.1 -1.4 -0.5 -1.5 -1.2 -0.1 -0.8 0.4 -1.5 1.2 -1.6s1.4 0.5 1.5 1.2c0.1 0.8 -0.4 1.5 -1.2 1.6" class="st1"/><g id="transformation" class="st1"><path d="M142.3 102.3c0 -0.5 1.2 -1.7 1.2 -2.1 0 -0.1 -0.1 -0.2 -0.2 -0.2 -0.5 0 -2.2 1.3 -4.7 1.3 -1 0 -1.7 -0.1 -1.7 -0.9 0 -0.7 0.6 -1.3 1.6 -1.7 1.1 -0.5 3.3 -0.5 3.3 -1 0 -0.4 -2.1 -0.4 -2.1 -0.8 0 -0.5 0.8 -1.7 0.8 -2.2 0 0 0 -0.2 -0.1 -0.2 -0.4 0 -1.4 1.2 -2 1.2s-1.1 -1.5 -1.6 -1.5c-0.1 0 -0.3 0.1 -0.3 0.4 0 0.6 0.3 1.7 0.3 3.2 0 1.3 -0.7 2.4 -1.4 2.4 -0.9 0 -1.2 -1.1 -1.2 -2 0 -1.3 0.7 -2.8 0.7 -4.2 0 -0.3 -0.1 -0.4 -0.3 -0.4 -0.5 0 -1.3 1.5 -1.9 1.5 -0.4 0 -1.1 -1.8 -1.7 -1.8 -0.1 0 -0.2 0.3 -0.2 0.7 0 0.5 0.1 1.2 0.1 1.5 0 0.4 -0.5 0.5 -1.1 0.5 -0.4 0 -1.2 0 -1.2 0.3s0.8 0.6 1.5 1.1c1.3 0.9 3.4 1.8 3.4 3.9 0 1.9 -2.7 3.2 -4.6 3.6 -0.9 0.1 -1.8 0.3 -1.8 0.6 0 0.4 2.4 0.5 2.4 1 0 0.3 -1.1 1.7 -1.1 2.1 0 0.1 0.1 0.1 0.1 0.1 0.4 0 1.6 -1 2.1 -1 0.7 0 0.6 2.1 1.1 2.1 0.6 0 0.4 -3.1 0.6 -3.9 0.4 -1.4 1.4 -2.8 2.3 -2.8 1.1 0 1.2 1.9 1.2 2.8 0 1.8 -1.3 3.7 -1.3 4.6 0 0.1 0.1 0.2 0.2 0.2 0.4 0 1.3 -1.2 1.8 -1.2s1.6 2 2 2c0.2 0 0.3 -0.2 0.3 -0.4 0 -0.6 -0.3 -1.6 -0.3 -2.2 0 -0.7 2.3 -0.3 2.3 -0.8 0 -0.2 -1 -0.6 -1.6 -1 -1.3 -0.8 -2.8 -2.5 -2.8 -3.9 0 -0.5 0.3 -0.9 0.7 -0.9 2.8 0 4 4.3 4.5 4.3s0.2 -1.9 0.4 -2.2c0.1 -0.1 0.4 -0.2 0.7 -0.2 0.5 0 1.1 0.1 1.5 0.1 0.3 0 0.4 0 0.4 -0.1 -0.1 -0.6 -2.3 -1.3 -2.3 -1.9"/><path d="M131.2 101.1c0 -0.9 -3.9 -3.9 -4.7 -3.9q-0.3 0 -0.3 0.3c0 0.3 0.1 0.7 0.1 1 0 0.7 -0.3 0.8 -1 0.8 -0.8 0 -2.1 -0.3 -2.1 -1.6 0 -2.5 4.8 -1.9 5.3 -4.2 -2.1 0 -3.1 -1.4 -4.5 -1.4 -0.5 0 -1.5 0.3 -1.5 1.6 0 0.4 0.1 1.1 0.1 1.7s-0.1 1 -0.8 1c-0.6 0 -0.7 -0.7 -0.7 -1.5 0 -0.7 0.1 -1.5 0.1 -2 0 -3.7 -4.1 -2.2 -4.5 -5.2 -1 1.8 -1.3 3.1 -1.3 4.2 0 3.9 5.3 3.5 5.3 6.2 0 0.7 -0.5 1.1 -1 1.1 -0.9 0 -1.5 -1.9 -2.9 -1.9 -0.7 0 -1.2 0.5 -1.2 1.6 0 0.8 0.2 1.4 0.2 2.2 0 1.6 -0.7 2.3 -1.4 3 4.8 -0.4 5.1 -4 6.5 -4 0.4 0 0.6 0.3 0.6 0.5 0 0.6 -1 1.6 -1 2.6 0 1.3 1.5 2 2.5 2 1.2 0 1.6 -0.4 1.6 -1.2 0 -0.9 -1.6 -2.1 -1.6 -3.1 0 -0.5 0.5 -0.6 1.2 -0.6 1.5 0 2 0.2 2 0.5 0 0.4 -0.6 1.2 -0.6 1.4 0 0.1 0.1 0.4 0.4 0.4 1.1 0.2 5.2 -0.7 5.2 -1.5"/></g><path id="hair" d="M80.7 87.6c-0.7 1.3 -0.9 3 -0.9 4 0 6.1 7.3 11.8 7.3 15.6 0 1.5 -1.1 3.3 -3.1 3.3 -1.8 0 -2.8 -1.4 -2.8 -2.6 0 -0.9 0.6 -1.7 0.9 -1.7 0.1 0 0.1 0.1 0.1 0.3 0 0.5 0.4 1.2 1.2 1.1 0.8 0 1.2 -0.5 1.2 -1.2 0 -3 -6 -8.2 -6 -15.3 -0.3 0.8 -0.7 1.8 -0.7 3.3 0 3.4 2.5 7 2.5 10.3 0 1.3 -1 2.5 -2.3 2.5 -1.5 0 -2 -1.2 -2 -1.9 0 -0.5 0.2 -1 0.4 -1s0.1 0.8 0.9 0.8c0.9 0 1.2 -0.6 1.2 -1.7 0 -3 -1.7 -5.1 -1.7 -8.2 0 -0.5 0 -1 0.1 -1.4 -0.9 1.1 -1 2.7 -1 4.1v3.7c0 2.5 -1.2 3.6 -2.7 3.6 -1 0 -1.9 -0.8 -1.9 -2.1 0 -0.2 0.1 -0.8 0.3 -0.8 0.3 0 0.5 0.8 1.3 0.8 1.6 0 1.7 -1.5 1.7 -4.6 -0.2 -3.8 1.2 -7.9 6 -10.9" class="st1"/><path id="hand" d="M70.8 85.8c0.5 0 0.7 0.5 0.7 0.9 0 1.7 -2.2 6.7 -2.2 8.1 0 0.2 0.1 0.4 0.3 0.4 0.9 0 2.7 -3.9 3.3 -5.8 0.3 -1 0.8 -1.5 1.2 -1.5s0.7 0.4 0.7 1.2c0 1.9 -1.8 6.5 -3.4 9.5 -1.2 2.4 -3.2 5.8 -3.2 7.7 0 1 0.2 2 1.6 3.2 -2.3 -0.1 -3.3 -0.4 -4.2 -2.1 -3.9 7.6 7.2 6.9 3.4 13.7 -0.7 -1.2 -6.2 -2.5 -6.2 -9.6 0 -6.1 5.5 -9.7 5.5 -12.3 0 -0.5 -0.2 -0.9 -0.7 -1.3 -1.2 -1 -1.2 -1.8 -2.2 -1.8 -0.7 0 -1.5 1.6 -0.7 3 0.3 0.5 0.5 0.8 0.5 1.2 0 1 -1.6 3.7 -2.7 3.7s-2 -2.8 -2 -7.2c0 -3.9 0.9 -7.9 2 -7.9 0.3 0 0.4 0.2 0.4 0.5 0 0.5 -0.1 1.4 -0.1 3 0 1.7 0.4 1.8 0.7 1.8 1.2 0 1 -7.5 3 -7.5 0.5 0 0.6 0.5 0.6 1 0 1.7 -0.8 4.2 -0.8 5.5 0 0.7 0.2 0.9 0.5 0.9 1 -0.1 2.5 -8.3 4 -8.3" class="st1"><animate attributeName="fill" begin="o1.begin+4.6s" dur="1s" values="#1F36C7;#FFC000;#1F36C7"/></path><path id="plant" d="M152.1 95.6c-1.7 0 -2.6 3 -4.3 3.1 1 -4.3 5.3 -6.6 5.3 -10.6 0 -4.6 -3.8 -6.2 -5.4 -7.2 -2.6 -3.8 -4.5 -6.8 -8.8 -6.8 -1.8 0 -3 0.3 -4.2 0.3 -2.4 0 -3.2 -0.9 -3.3 -0.9 0 0 -0.1 0 -0.1 0.2 0 3.4 1.8 11 9.4 11 4.1 0 5.8 -1.6 6.8 -1.6s4.3 1.1 4.3 5c0 2.1 -1.7 4.3 -2.3 4.3s-1.2 -1 -1.2 -2c0 -1.1 0.6 -3.2 0.6 -4.5 0 -0.5 -0.1 -0.7 -0.4 -0.7 -0.6 0 -3.7 2 -3.7 4.4 0 2.1 3.1 3.4 4.3 4 -1.2 1.9 -1.9 3.2 -2.4 5 0 -1.4 -1.3 -4.1 -1.7 -5.3 -1.9 -5.4 -2.6 -6.4 -6.7 -6.9 0.6 2.2 7.6 7.4 7.6 12.7 0 0.3 0 0.8 -0.1 1 -2.1 -6.2 -5.7 -7.7 -7 -9.2 -2.1 -2.4 -0.9 -4.7 -4.3 -6 0.2 0.3 0.3 0.7 0.3 1 0 1.2 -0.6 2.6 -0.6 3.6 0 3.8 4.3 2.6 6.9 4.7 2.5 2 3.9 5.3 4.9 9 1 -1.6 1.6 -3.6 3.3 -3.6 1.1 0 1.5 1.4 1.5 2.5v0.5c1.7 -1.5 2.6 -3.9 2.6 -5.5 -0.1 -0.8 -0.5 -1.5 -1.3 -1.5m-6.8 -14.1c-0.4 0 -1 -0.2 -1.5 -0.2 -1.2 0 -2.1 1.7 -2.7 1.7 -0.2 0 -0.3 -0.2 -0.3 -0.4 0 -0.7 1.2 -1.5 1.2 -2 0 -0.3 -0.5 -0.4 -0.7 -0.4 -1.2 0 -2.9 1.7 -3.9 1.7 -0.2 0 -0.4 -0.1 -0.4 -0.3 0 -0.5 1.3 -1.1 1.3 -1.6s-0.5 -0.5 -0.9 -0.5c-0.6 0 -1.8 0.3 -2.5 0.3 -0.4 0 -0.7 -0.1 -0.7 -0.4 0 -0.7 2.3 -0.3 2.3 -1.1 0 -0.4 -0.7 -1.2 -0.7 -1.6 0 -0.2 0.2 -0.3 0.4 -0.3 0.8 0 1.7 2.3 2.6 2.3 0.4 0 0.5 -0.3 0.5 -0.8s-0.1 -0.7 -0.1 -1.1 0.2 -0.5 0.3 -0.5c0.6 0 1.1 3.2 2.8 3.2 0.7 0 0.2 -2 0.9 -2 0.4 0 0.5 0.6 0.5 0.9 0.2 2.1 2.1 2.2 2.1 3 -0.1 -0.1 -0.2 0.1 -0.5 0.1" class="st1"><animate attributeName="fill" begin="o1.begin+4.65s" dur="1s" values="#1F36C7;#00D7C4;#1F36C7"/></path><path id="particles" d="M121.4 76.8c0.8 0 1.4 0.6 1.4 1.3s-0.6 1.3 -1.4 1.3c-0.7 0 -1.4 -0.6 -1.4 -1.3s0.7 -1.3 1.4 -1.3m9.2 12.6c-0.7 0 -1.4 0.6 -1.4 1.3 0 0.8 0.7 1.3 1.4 1.3 0.8 0 1.4 -0.6 1.4 -1.4 0 -0.7 -0.6 -1.2 -1.4 -1.2m-4.6 -2.5c-1.4 0 -2.5 1.1 -2.5 2.4s1.1 2.4 2.5 2.4 2.5 -1.1 2.5 -2.4 -1.1 -2.4 -2.5 -2.4m-4.4 -1.1c-0.8 0 -1.4 0.6 -1.4 1.4s0.7 1.4 1.4 1.4c0.8 0 1.4 -0.6 1.4 -1.4s-0.6 -1.4 -1.4 -1.4m8.8 2.2c0.9 0 1.7 -0.7 1.7 -1.6s-0.8 -1.6 -1.7 -1.6 -1.7 0.7 -1.7 1.6c0 0.8 0.8 1.6 1.7 1.6m-13 -5.1c-1.1 0 -2.1 0.9 -2.1 2s0.9 2 2.1 2c1.1 0 2.1 -0.9 2.1 -2 -0.1 -1.1 -1 -2 -2.1 -2m7.5 1.5c0 0.8 0.6 1.4 1.4 1.4s1.4 -0.6 1.4 -1.4 -0.6 -1.4 -1.4 -1.4 -1.4 0.7 -1.4 1.4m-2.8 0.4c1.2 0 2.2 -0.9 2.2 -2.1s-1 -2.1 -2.2 -2.1 -2.2 0.9 -2.2 2.1c0 1.1 0.9 2.1 2.2 2.1m8 -1.4c0.8 0 1.5 -0.7 1.5 -1.5s-0.7 -1.5 -1.5 -1.4c-0.8 0 -1.5 0.7 -1.5 1.5s0.7 1.4 1.5 1.4m-12.1 -2c0.8 0 1.4 -0.6 1.4 -1.4s-0.6 -1.4 -1.4 -1.4 -1.4 0.6 -1.4 1.4c-0.1 0.8 0.6 1.4 1.4 1.4m8.2 -0.1c1.3 0 2.3 -1 2.3 -2.2s-1 -2.2 -2.3 -2.2 -2.3 1 -2.3 2.2 1 2.2 2.3 2.2m1.7 -5.2c0.8 0 1.4 -0.6 1.4 -1.3s-0.6 -1.3 -1.4 -1.3 -1.4 0.6 -1.4 1.3c0.1 0.8 0.7 1.3 1.4 1.3" class="st1"/><path id="tree" d="M87.5 77.9c0.9 0 2.5 1.5 2.9 3.1 -0.2 0 -0.4 -0.1 -0.5 -0.1 -1.2 0 -1.8 1.1 -2.7 3 2.1 -1.4 4 -2.5 6.2 -2.5 1.9 0 3.4 1.1 3.4 2.8 0 0.7 -0.4 1.5 -0.8 2.3 -0.3 -1.6 -1.6 -2.3 -3.9 -2.3 -1.3 0 -2.9 0.2 -4.2 0.7 4.1 0.6 4.7 2 4.7 3.3 0 2.2 -2.3 3.3 -3.8 4 0.1 -0.6 0.3 -1.3 0.3 -2 0 -1.3 -0.5 -2.9 -2.6 -4.3 -0.3 1.4 -1.5 2.3 -1.5 3.4 0 0.4 0.3 0.6 0.5 0.6 0 0.6 -0.3 2.4 -0.3 2.9 0 0.9 0.2 1.1 0.7 1.2 0.3 0.8 0.3 2.2 0.5 2.9 0.1 0.4 0.4 0.5 0.7 0.5 0.3 0.7 0.7 1.8 1.3 2.2 0.1 0.1 0.3 0.4 0.3 0.6 0 0.6 -1 1.3 -1.6 1.3 -0.2 0 -0.5 -0.1 -0.8 -0.8 -0.2 -0.5 -2 -1.6 -2.1 -2.2 0.1 -0.1 0.2 -0.3 0.2 -0.6 0 -1 -1.6 -2.1 -1.6 -3.7 0.2 -0.1 0.4 -0.4 0.4 -0.7 0 -0.9 -0.9 -2.6 -0.9 -3.8 0.4 0 0.6 0 0.6 -0.6 0.1 -1.2 0.3 -2.9 1.4 -3.9 -0.3 0 -0.6 -0.1 -1 -0.1 -2.2 0 -5.5 1.2 -6.8 4 -0.1 -0.4 -0.1 -0.8 -0.1 -1.2 0 -2.3 1.4 -3.8 2.5 -4.3 0.5 -0.2 1.2 -0.3 1.9 -0.3 1.2 0 2.5 0.2 3.9 0.5 -1.2 -1.6 -3.1 -2.7 -4.7 -2.7 -0.7 0 -1.3 0.2 -1.5 0.8 -0.1 -0.3 -0.1 -0.8 -0.1 -1.2 0 -1.7 0.6 -2.7 2.1 -2.7 2.2 0 4.2 2.6 5.3 5v-0.3c0 -3.4 0.1 -5.1 1.5 -5.2z" class="st1"/><path id="bee" d="M59.7 83.6c0 2.7 0.9 4 2.4 4 1.2 0 2.8 -0.8 4.7 -2.4 -1.5 0.3 -2.6 0.5 -3.6 0.5 -1.3 0 -2.4 -0.5 -3.5 -2.1m10.4 -3.7c-0.9 0.2 -2.6 1.2 -2.6 3 0 1.3 1 2.1 2.3 2.1 0.7 0 1.2 -0.1 1.5 -0.4 -1 -1 -1.4 -2 -1.4 -3.1 0 -0.7 0.1 -1.2 0.2 -1.6m3.1 -2.9c-0.8 0.9 -1.7 2.5 -1.7 4.1 0 1.9 1.2 3.5 3.1 3.5 1.8 0 2.7 -1.5 2.7 -3 0.1 -2.4 -2.2 -4.1 -4.1 -4.6m-12.198 3.4v0.5c0 1.7 0.9 2.6 2.2 2.6 0.9 0 2 -0.5 3 -1.7 -0.4 0.1 -0.9 0.1 -1.3 0.1 -1.5 0.1 -3 -0.3 -3.9 -1.5m7.4 -9.2c-1.2 0 -2.7 0.1 -4.3 1.1 -3.2 2 -2.8 5.2 -3.3 6.1 -0.1 0.1 -0.1 0.2 -0.1 0.4 0 0.3 0.4 0.7 0.7 0.7s0.5 -0.1 0.6 -0.1c0.9 0 1.9 0.6 3.4 0.6 0.9 0 1.9 -0.3 3.1 -0.9 2.7 -1.3 3.7 -4.5 3.7 -5 0 -0.7 -0.6 -0.6 -1 -1.2 -0.5 -0.6 -0.3 -1.2 -0.6 -1.5 -0.2 -0.2 -0.7 -0.2 -1.4 -0.2zm-2.2 7.1c-1.2 0 -2.6 -1.5 -2.6 -2.8 0 -0.7 0.6 -1.6 1 -1.6 0.1 0 0.2 0.1 0.3 0.4 0.2 1.7 1.4 2.7 2.5 3.2 0.1 0.1 0.2 0.1 0.2 0.2 -0.1 0.3 -0.8 0.6 -1.4 0.6m4.4 -3.3c0 0.5 -0.3 1.1 -0.9 1.1 -1.3 0 -2.3 -1.9 -2.4 -3 0 -0.7 0.4 -0.7 1 -0.7 0.3 0 0.4 0 0.6 0.1 0.3 0.2 0.3 0.9 0.7 1.4 0.3 0.4 1 0.8 1 1.1m2.8 -1.6c0 0.8 0.7 1.4 1.5 1.4s1.5 -0.6 1.5 -1.4 -0.7 -1.4 -1.5 -1.4c-0.8 -0.1 -1.5 0.6 -1.5 1.4m-0.5 -1.8c0.8 0 1.5 -0.6 1.5 -1.4s-0.7 -1.4 -1.5 -1.4 -1.5 0.6 -1.5 1.4c0.1 0.7 0.7 1.4 1.5 1.4m-10.1 -0.7c1.3 0 2.4 -0.8 2.4 -0.8 -2.2 -0.6 -3.4 -2.1 -3.4 -4.2v-0.6c-1.4 0.6 -2 1.7 -2 2.8 0.1 1.7 1.4 2.8 3 2.8m6.5 -1.6q0.3 -0.9 0.3 -2.1c0 -1.7 -0.8 -4.3 -3.4 -4.3 -1.5 0 -2.5 1.1 -2.5 2.4 0.1 2.9 3.1 4 5.6 4" class="st1"/><g id="ice_cream" class="st1"><path d="M151.5 68.4c-1.6 3.2 -5.6 3.9 -6.9 3.7 0.4 3.3 5.3 7.7 6.6 7.6 0.9 -0.1 1.2 -4.3 1.2 -7.6 0 -1.9 0.1 -3.4 -0.9 -3.7m0.1 -3.1c0 -1.2 -0.5 -2.1 -1.9 -2.3 0.2 0.3 0.3 0.6 0.3 1.1 0 1.9 -2.8 4 -5.9 4 -1.1 0 -1.5 0.8 -1.4 1.2 0 1 0.9 1.4 2.2 1.4 3.5 -0.1 6.7 -2.9 6.7 -5.4"/><path d="M144.1 66.8c1.4 0 4.4 -1.2 4.4 -2.8 0 -0.5 -0.2 -1 -1 -1 -1.1 0 -2.6 1.1 -4.1 1.1 -0.5 0 -1.1 0 -1.7 -0.2 0.6 0.4 0.5 1.4 0.8 2.1 0.5 0.8 1.1 0.8 1.6 0.8"/></g><g id="cycle" class="st1"><path d="M125.3 67.6c0 3.2 -2.2 4.5 -4.2 4.5 -0.5 0 -0.9 -0.1 -1.3 -0.3 0.4 -0.4 0.8 -1 0.8 -1.4 0 -0.3 -0.2 -0.4 -0.5 -0.4 -0.2 0 -0.7 0.1 -1.1 0.1 -1 0 -1.8 -0.4 -2.7 -1.3 -0.6 0.9 -0.9 2.1 -0.9 3.3 0 1.9 0.7 3.8 1.5 3.9 0.4 0 0.4 -1.3 1.1 -1.3 0.2 0 1 0.6 2.7 0.6 2.5 0 5.3 -1.5 5.3 -5.4 -0.1 -0.5 -0.3 -1.7 -0.7 -2.3"/><path d="M119.6 65.6c0.5 0 1.5 0.2 1.8 0.7 -0.4 0.2 -0.8 0.7 -0.8 1.1 0 0.2 0.1 0.4 0.3 0.5 0.9 0.4 1.4 1.1 1.7 1.7 1.6 -0.9 2.2 -3.4 2.2 -4.8 0 -0.4 0 -1 -0.4 -1 -0.3 0 -0.6 0.4 -1 0.4 -0.3 0 -1.2 -1.2 -3.4 -1.2 -2.5 0 -3.6 1.9 -3.6 3.5 0 0.4 0.1 0.9 0.2 1.2 0.5 -1 1.5 -2.1 3 -2.1"/></g><path id="DNA" d="M94.3 67.7c-1.8 0 -3.4 1.5 -4.6 3.5 0.1 -0.4 0.1 -0.8 0.1 -1.2 0 -2.8 -1.5 -5.2 -4.2 -5.2 -2.2 0 -4.3 1.3 -5.1 3.9 0.2 -0.2 1 -0.7 1.6 -0.7 0.7 0 0.9 0.6 0.9 1.6 0 0.6 -0.1 1.4 -0.4 2.1 -0.4 1.2 -1.2 1.5 -1.6 1.5 -1.7 0 -0.9 -2.9 -1.8 -2.9 -0.7 0 -0.9 1.6 -0.9 2.2 0 2 1.3 4.1 4.2 4.1 3.1 0 4.8 -1.5 6.6 -3.4 0.4 2.1 1.5 5.8 4.6 5.8 1.7 0 2.9 -1.4 3 -3.1 -0.2 0.2 -0.5 0.4 -0.9 0.4 -0.6 0 -0.8 -0.9 -0.8 -1.7 0 -1.3 0.4 -2.7 1 -2.7 0.3 0 0.5 0.2 0.6 1.2 0.1 0.7 0 1.6 0.5 1.6s0.7 -1.5 0.7 -2.4c-0.1 -2.6 -1.2 -4.7 -3.5 -4.6m-10.3 6.799c-0.3 0 -0.4 -0.3 -0.4 -0.5 0 -1.4 1.5 -7.6 2.6 -7.6 0.2 0 0.3 0.2 0.3 0.5 0 1.1 -1.3 7.6 -2.5 7.6m4.6 -2.7c-0.9 1 -1.4 1.5 -1.8 1.5 -0.2 0 -0.4 -0.4 -0.4 -0.8 0 -0.7 0.5 -3.6 1.6 -3.6 0.4 0 0.7 0.8 0.7 1.5 0 0.6 0 1 -0.1 1.4m2.1 2.5c-0.3 0 -0.6 -0.6 -0.6 -1.8 0.6 -1 0.9 -1.4 1.3 -1.4 0.1 0 0.3 0.1 0.3 0.7 -0.1 1.3 -0.6 2.5 -1 2.5m1.8 2.1c-0.2 0 -0.4 -0.3 -0.4 -1.1 0 -1.9 1.2 -5.4 1.9 -5.4 0.2 0 0.3 0.5 0.3 1 0.1 2.1 -0.9 5.5 -1.8 5.5" class="st1"/><path id="lips" d="M138.4 63.6c-0.7 0 -1.8 0.8 -2.6 0.8 -1.1 0 -0.8 -1.5 -2 -1.5q-0.45 0 -0.9 0.3c-2.5 1.3 -4.5 0.8 -4.9 1.1 -0.1 0.1 -0.2 0.1 -0.2 0.4 0 2.8 2.8 7 7.4 7 3.2 0 5.8 -1.1 5.8 -3 -0.1 -1.6 -1.6 -5.1 -2.6 -5.1m-2.9 5.4c-2.6 0 -4.2 -1.5 -4.2 -2.4 0 -0.1 0.1 -0.2 0.2 -0.2 0.4 0 1.5 0.6 3 0.8 1.7 0.3 2.6 0.3 3.1 0.3s0.7 0.1 0.7 0.3c-0.1 0.5 -1.3 1.2 -2.8 1.2" class="st1"/><path id="dove" d="M152.4 46.8c-1.8 0 -2 -0.5 -3.2 -0.5 -1.4 0 -2.4 1 -2.4 2.5 0 0.5 0.2 1.3 0.2 2.3 0 1.2 -0.2 2.4 -1.3 2.4 -1 0 -1.4 -0.7 -1.4 -1.5 0 -1.4 0.7 -2.4 0.7 -3.3 0 -1.7 -2 -2.2 -4.2 -2.2 -2.6 0 -5.4 0.7 -5.4 1.1 0 0.6 3.7 0.2 6.4 3.7 -1.7 0 -5 0.8 -5 1.3 0 0.6 6 1.2 6 3.7 0 1.6 -1.3 1.8 -1.8 1.8 -2 0 -3 -2.1 -3.5 -2.1 -0.1 0 -0.3 0.1 -0.3 0.3 0 0.3 0.3 1.2 0.3 2.1 0 2.3 -2.5 2.5 -2.5 3 0 0.2 0.1 0.2 0.4 0.3 1.8 0.3 3.7 0.4 5.4 0.4 6.4 0 11.5 -2 11.5 -7.6 0 -3.1 -1 -4.1 -1 -5.6 -0.2 -0.5 0.2 -1.6 1.1 -2.1m-8.9 12.201h-1.3c4.1 -0.7 6.4 -3.1 6.4 -6.3 0.9 0.3 1.5 1.2 1.5 2.2 -0.1 1.9 -1.8 4.1 -6.6 4.1m5.7 -9.7c-0.5 0 -0.9 -0.4 -0.9 -0.9s0.4 -0.9 0.9 -0.9 0.9 0.4 0.9 0.9 -0.4 0.9 -0.9 0.9" class="st1"/><path id="spark" d="M127.5 45.6c-2.4 0 -4.2 1.2 -5.2 1.2 -0.6 0 -1.4 -1.4 -1.9 -1.4 -0.2 0 -0.4 0.4 -0.4 1v0.2c0 0.5 -0.1 1.4 -0.4 1.4 -0.9 0 -4.3 -2.4 -4.3 -1.6s2.3 3.3 2.3 3.9 -2.2 1.2 -2.2 1.7c0 0.8 2.4 0.9 2.4 1.9s-2.5 1.8 -2.5 2.5c0 0.6 2.5 0.2 2.5 0.9s-1.8 3.2 -1.8 3.9c0 0.2 0 0.2 0.2 0.2 0.7 0 2.8 -2.3 3.3 -2.3 0.6 0 0.7 1.4 0.8 2.2 0.1 0.4 0.1 0.5 0.3 0.5 0.4 0 1.1 -1.6 1.6 -1.6 0.7 0 2.5 1.9 5.6 1.9 4.4 0 8.5 -3 8.5 -8.3 0.1 -5.2 -3.7 -8.2 -8.8 -8.2m-6.098 11.398c-0.1 0 -0.2 -0.1 -0.2 -0.3l-0.1 -1.4c0 -0.1 -0.1 -0.3 -0.3 -0.3h-1.5c-0.2 0 -0.3 0 -0.3 -0.1 0 -0.3 1.5 -1.3 1.5 -1.5 0 -0.4 -1.4 -1.1 -1.4 -1.6 0 -0.1 0.1 -0.1 0.2 -0.1 0.4 0 1.1 0.1 1.6 0.1s0.5 -2 0.9 -2c0.3 0 0.7 1.9 1.1 1.9 0.5 0 1.3 -0.5 1.7 -0.5 0.1 0 0.1 0 0.1 0.1 0 0.2 -0.9 1.2 -0.9 1.5s2 0.7 2 1c0 0.4 -2.1 0.3 -2.1 0.6 0 0.2 0.8 1.2 0.8 1.6 0 0.1 0 0.1 -0.1 0.1 -0.3 0 -1.4 -0.5 -1.7 -0.5 -0.4 0 -1 1.4 -1.3 1.4m6.2 3.1c-2.5 0 -4.2 -1.2 -4.2 -1.9 0 -0.3 0.2 -0.5 0.5 -0.5 0.8 0 2.5 1.2 3.1 1.2 0.1 0 0.3 -0.1 0.3 -0.3 0 -0.6 -0.6 -1.7 -0.6 -2.2 0 -0.1 0.1 -0.2 0.3 -0.2 1 0 2.4 0.4 3.2 0.4 0.3 0 0.3 -0.1 0.3 -0.3 0 -0.8 -2.4 -2.3 -2.4 -2.8 0 -0.4 2.9 -1.1 2.9 -1.7 0 -0.7 -4 -0.2 -4 -0.9 0 -0.5 0.8 -1.3 0.8 -1.7 0 -0.2 -0.1 -0.2 -0.4 -0.2s-2.1 0.7 -2.8 0.7c-0.4 0 -0.8 -0.1 -0.8 -0.6 0 -0.8 1.4 -1.7 3.6 -1.7 3.6 0 5.7 2.4 5.7 6.4 0.1 5 -3.5 6.3 -5.5 6.3" class="st1"/><g id="sun" class="st1"><path d="M89.6 55.8c1.4 0 5.6 1.9 7.5 1.9 0.7 0 1.1 -0.4 1.1 -0.8 0 -2.2 -5.9 -6.1 -6 -7.7 0 -0.2 0.1 -0.3 0.2 -0.4 1 -1.1 5.2 -1.8 5.2 -2.7 0 -0.5 -0.9 -0.5 -1.3 -0.5 -3.4 0 -8.3 1.2 -8.3 2.4s4.4 4.2 4.4 5.7c0 0.4 -0.3 0.5 -0.7 0.5 -1.2 0 -3.9 -1.5 -5.2 -1.5 -0.6 0 -0.8 0.4 -0.8 1 0 1.7 2.1 5 2.1 6 0 0.1 0 0.3 -0.2 0.3 -0.7 0 -3.7 -3.6 -4.8 -3.6 -0.4 0 -0.4 0.5 -0.4 1.3v1.2c0 0.8 0 1.3 -0.4 1.3 -0.9 0 -1.4 -2.6 -2.3 -2.6s-1.1 4.7 -2 4.7c-1.1 0 -0.2 -5.1 -1.2 -5.1 -1.1 0 -2.4 3.4 -3.2 3.4 -0.3 0 -0.4 -0.3 -0.4 -0.5 0 -1 0.6 -2.7 0.6 -3.7 0 -0.5 -0.1 -0.8 -0.6 -0.8 -1.1 0 -3.6 1.8 -4.5 1.8 -0.1 0 -0.3 -0.1 -0.3 -0.2 0 -0.9 4 -3.6 4 -4.8s-5.5 -0.4 -5.5 -1.8c0 -1.1 3.9 -2.3 3.9 -3.5 0 -1 -4.6 -1.5 -6.4 -1.5 -2.1 0 -3.3 0.3 -3.3 0.9 0 0.9 4.9 1.2 4.9 2s-5.1 2.9 -5.1 4.1c0 1.1 7.1 0.1 7.1 1.2 0 1.2 -6.2 6.5 -6.2 8.3 0 0.4 0.3 0.6 0.7 0.6 1.9 0 6.8 -3.6 8.1 -3.6 0.5 0 0.5 0.6 0.5 1.1 0 0.9 -0.3 2.4 -0.3 3.4 0 0.8 0.2 1.4 0.9 1.4 1.3 0 2.6 -2.3 3.5 -2.3 1.2 0 0.5 6.6 2.2 6.6 1.5 0 2.1 -7.2 3 -7.2s1.7 2.1 2.6 2.1c1.1 0 0.6 -3.6 1.7 -3.6 1.3 0 4.9 4.3 6.6 4.3 0.5 0 0.7 -0.4 0.7 -0.9 0 -1.9 -2.7 -6.2 -2.7 -7.6 0.1 -0.5 0.2 -0.6 0.6 -0.6"/><path d="M91.9 58.3c-0.1 0 -0.2 0.1 -0.2 0.2 0 1.3 4.6 7.4 5.4 7.4 0.7 0 1.3 -1.3 1.3 -2.3 0 -0.3 -0.1 -0.6 -0.2 -0.8 -0.7 -1 -5.3 -4.5 -6.3 -4.5m-26.901 -3.501c0 -0.3 -0.6 -0.4 -1.1 -0.4 -0.8 0 -1.9 0.2 -2.4 0.6 -0.4 0.3 -0.7 1.3 -0.7 2 0 0.4 0.1 0.8 0.5 0.8 0.9 0.1 3.7 -2.3 3.7 -3m6.5 -4.5c0.8 0 2.1 -0.4 3 -0.4 0.5 0 1 0.1 1 0.6 0 0.9 -2 2.5 -2 3.2 0 0.2 0.2 0.3 0.4 0.3 0.7 0 2 -1.8 3.1 -1.8 1.9 0 0.7 4.1 1.7 4.1 1.1 0 0.6 -4 2.2 -4 1.3 0 2.2 2.8 3.1 2.8a0.43 0.43 0 0 0 0.4 -0.4c0 -0.8 -1.1 -2.3 -1.1 -3.3 0 -0.6 0.4 -0.9 1 -0.9 0.8 0 2 0.5 2.6 0.5 0.2 0 0.4 -0.1 0.4 -0.3 0 -0.9 -3.2 -1.8 -3.2 -2.9s1.8 -1.1 1.8 -1.6c0 -0.2 -1.1 -0.4 -2.6 -0.4 -2.4 0 -2 1.9 -3.9 1.9s-1.4 -2 -3.8 -2c-1.5 0 -2.8 0.3 -2.8 0.6 0 0.4 1.7 0.2 1.7 1.4 0 1.3 -3.7 1.6 -3.7 2.4 0 0.1 0.3 0.2 0.7 0.2m22.9 -0.5c0 0.6 2.3 2 3.3 2 0.6 0 0.8 -0.8 0.8 -1.7 0 -1.1 -0.5 -1.1 -1.4 -1.1 -1.2 0 -2.7 0.3 -2.7 0.8"/></g></g></svg>